<?xml version="1.0" encoding="UTF-8" standalone="no"?>
<svg width="334px" height="66px" viewBox="0 0 334 66" version="1.1" xmlns="http://www.w3.org/2000/svg" xmlns:xlink="http://www.w3.org/1999/xlink">
    <!-- Generator: Sketch 40.3 (33839) - http://www.bohemiancoding.com/sketch -->
    <title>Page 1</title>
    <desc>Created with Sketch.</desc>
    <defs>
        <polygon id="path-1" points="0 64.7840178 333.857687 64.7840178 333.857687 0.647840178 0 0.647840178"></polygon>
    </defs>
    <g id="Page-1" stroke="none" stroke-width="1" fill="none" fill-rule="evenodd">
        <g id="Desktop-HD" transform="translate(-530.000000, -554.000000)">
            <g id="Page-1" transform="translate(530.000000, 554.000000)">
                <polygon id="Fill-1" fill="#231F1F" points="0.00774492754 23.4255141 5.48437681 23.4255141 5.48437681 1.15141505 0.00774492754 1.15141505"></polygon>
                <g id="Group-41" transform="translate(0.000000, 0.318892)">
                    <path d="M23.7040284,16.292697 C23.7040284,17.7498539 23.3187183,19.0068573 22.5490661,20.0656408 C21.7794139,21.1253913 20.7386893,21.9279396 19.4278603,22.4723188 C18.1179994,23.0176648 16.6726023,23.2893709 15.091669,23.2893709 C13.2454719,23.2893709 11.6403357,23.0708457 10.2733559,22.6328284 C8.90734435,22.1948111 7.69332696,21.4367414 6.63324,20.3566855 L10.1513733,16.8428777 C10.7022313,17.3920915 11.426382,17.7923987 12.3228574,18.0418655 C13.221269,18.2913323 14.1535646,18.4160657 15.1226487,18.4160657 C17.2534719,18.4160657 18.3193675,17.7498539 18.3193675,16.4145296 C18.3193675,15.8440435 18.1712458,15.4069931 17.8759704,15.1014446 C17.5806951,14.7949292 17.0908284,14.5967094 16.4073386,14.5048515 L13.7159762,14.1229159 C11.7361791,13.848309 10.2433443,13.1917665 9.23359942,12.1523214 C8.21320522,11.1032071 7.70397623,9.61124084 7.70397623,7.67642264 C7.70397623,6.32175982 8.03216754,5.11213585 8.69048638,4.04755072 C9.34880522,2.98296559 10.290782,2.15044262 11.5202893,1.5499818 C12.7488284,0.948554051 14.1893849,0.647840178 15.8409907,0.647840178 C17.4838835,0.647840178 18.9186313,0.860563818 20.1481386,1.28311032 C21.3766777,1.70565683 22.4493501,2.379604 23.3671241,3.30688568 L19.9254719,6.74430633 C19.3542835,6.1738202 18.7375936,5.81219001 18.0754023,5.65941576 C17.4122429,5.50664151 16.6164516,5.43025438 15.6889965,5.43025438 C14.8118835,5.43025438 14.1438835,5.63911032 13.6849965,6.05585527 C13.2261096,6.47453407 12.995698,6.95316226 12.995698,7.49270677 C12.995698,7.89011321 13.1438197,8.23627259 13.4400632,8.53118491 C13.7866487,8.87831121 14.2958777,9.0968364 14.9696864,9.18869434 L17.6620168,9.55515916 C19.6195472,9.84040222 21.0833386,10.4563339 22.0524226,11.403921 C22.6332922,11.9637709 23.0534545,12.6435196 23.3138777,13.4431671 C23.5733328,14.2428147 23.7040284,15.1933026 23.7040284,16.292697 L23.7040284,16.292697 Z" id="Fill-2" fill="#231F1F"></path>
                    <polygon id="Fill-4" fill="#231F1F" points="56.6251014 0.831942819 50.5211304 23.1060418 46.0397217 23.1060418 42.4451072 12.1217666 38.8350029 23.1060418 34.3836058 23.1060418 28.2505913 0.831942819 33.9866783 0.831942819 36.8929623 12.5955601 40.5020986 0.831942819 44.3881159 0.831942819 47.9827304 12.5955601 50.9035362 0.831942819"></polygon>
                    <path d="M67.7785716,11.9691857 C67.7785716,10.0749784 67.7146759,8.78123188 67.5868846,8.08794619 C67.4590933,7.39659436 67.2528846,6.86671911 66.9682586,6.49928737 C66.7639861,6.21404431 66.4648383,5.9800483 66.0727513,5.79729936 C65.6796962,5.61358349 65.2440441,5.52172555 64.7648267,5.52172555 C64.2962586,5.52172555 63.8722238,5.61164963 63.4956267,5.78956395 C63.1180614,5.96747827 62.8121368,6.20437505 62.5778528,6.49928737 C62.3939107,6.7342503 62.2428846,7.02142721 62.1267107,7.36275196 C62.0086006,7.70504364 61.9195339,8.22815041 61.8585426,8.93593998 C61.7975513,9.64469647 61.7665716,10.6551338 61.7665716,11.9691857 C61.7665716,13.2726015 61.7975513,14.2791711 61.8585426,14.9869606 C61.9195339,15.6947502 62.0086006,16.21689 62.1267107,16.5524132 C62.2428846,16.8889034 62.3939107,17.1731795 62.5778528,17.4081424 C63.097731,18.0801557 63.8267223,18.4156789 64.7648267,18.4156789 C65.7135803,18.4156789 66.4474122,18.0801557 66.9682586,17.4081424 C67.2528846,17.010736 67.4590933,16.47796 67.5868846,15.8107813 C67.7146759,15.1436026 67.7785716,13.863393 67.7785716,11.9691857 L67.7785716,11.9691857 Z M73.2542354,11.9691857 L73.2542354,12.7175861 C73.2542354,13.9610525 73.2106701,15.0295053 73.1245078,15.9268123 C73.0373774,16.8221855 72.8321368,17.6885509 72.5058817,18.5230077 C72.1796267,19.3584314 71.6800788,20.1126334 71.0082064,20.7846467 C70.1824035,21.6084674 69.2733426,22.2331014 68.2800557,22.6556479 C67.2867687,23.0781944 66.1172846,23.2899511 64.7725716,23.2899511 C63.865447,23.2899511 63.0483571,23.1951924 62.3193658,23.0066419 C61.5913426,22.8190583 60.918502,22.5415506 60.3027803,22.1741189 C59.6860904,21.8076541 59.1023165,21.3444967 58.5524267,20.7846467 C57.5746296,19.806118 56.9530991,18.6970543 56.6878354,17.4535879 C56.4235397,16.2110885 56.2909078,14.6330658 56.2909078,12.7175861 L56.2909078,11.9691857 L56.2909078,11.2207853 C56.2909078,9.30530557 56.4235397,7.72438215 56.6878354,6.47608115 C56.9530991,5.22874708 57.5746296,4.11581567 58.5524267,3.13825385 C59.39856,2.29316084 60.3124614,1.66755996 61.2960672,1.25951734 C62.2787049,0.851474717 63.4385078,0.648420333 64.7725716,0.648420333 C66.1172846,0.648420333 67.2838643,0.854375494 68.2723107,1.26725274 C69.2607571,1.68012999 70.1727223,2.30379703 71.0082064,3.13825385 C71.6800788,3.8112341 72.1796267,4.56736994 72.5058817,5.40762832 C72.8321368,6.2478867 73.0373774,7.11618593 73.1245078,8.01155907 C73.2106701,8.90886606 73.2542354,9.97731889 73.2542354,11.2207853 L73.2542354,11.9691857 Z" id="Fill-6" fill="#231F1F"></path>
                    <path d="M86.1507983,8.0045972 C86.1507983,7.60815769 86.0559229,7.23782517 85.8671403,6.89359964 C85.6773896,6.54744027 85.4014765,6.27186646 85.0394012,6.06397745 C84.6753896,5.85512151 84.2542591,5.75166047 83.7731055,5.75166047 L80.6596446,5.75166047 L80.6596446,10.2430301 L83.7731055,10.2430301 C84.2542591,10.2430301 84.6753896,10.1386021 85.0394012,9.93071307 C85.4014765,9.72282406 85.6773896,9.44821718 85.8671403,9.10882628 C86.0559229,8.76846846 86.1507983,8.40103671 86.1507983,8.0045972 L86.1507983,8.0045972 Z M92.8056272,23.1060418 L86.4712446,23.1060418 L82.5155229,14.8107868 L80.6596446,14.8107868 L80.6596446,23.1060418 L75.1830128,23.1060418 L75.1830128,0.831942819 L84.0170707,0.831942819 C85.6163983,0.831942819 86.9862823,1.16553216 88.127691,1.83271085 C89.2681316,2.49892262 90.1365316,3.37785802 90.732891,4.46758322 C91.3292504,5.55730841 91.6274301,6.73405691 91.6274301,7.9968618 C91.6274301,9.39310242 91.2740678,10.5862887 90.5663751,11.5793213 C89.8606186,12.5723539 89.0038359,13.3188205 87.9969954,13.8177541 L92.8056272,23.1060418 Z" id="Fill-8" fill="#231F1F"></path>
                    <polygon id="Fill-10" fill="#231F1F" points="112.54009 23.1065253 106.161174 23.1065253 101.021446 13.9710119 99.139429 16.1243552 99.139429 23.1065253 93.6947449 23.1065253 93.6947449 0.832426282 99.139429 0.832426282 99.139429 8.71480408 105.594826 0.832426282 112.295157 0.832426282 104.677052 9.84514016"></polygon>
                    <mask id="mask-2" fill="white">
                        <use xlink:href="#path-1"></use>
                    </mask>
                    <g id="Clip-13"></g>
                    <polygon id="Fill-12" fill="#231F1F" mask="url(#mask-2)" points="112.92298 23.106622 118.399612 23.106622 118.399612 0.832522974 112.92298 0.832522974"></polygon>
                    <polygon id="Fill-14" fill="#231F1F" mask="url(#mask-2)" points="138.439902 23.1065253 133.652569 23.1065253 126.508841 11.9075925 126.508841 23.1065253 121.032209 23.1065253 121.032209 0.832426282 125.822447 0.832426282 132.964238 12.0303921 132.964238 0.832426282 138.439902 0.832426282"></polygon>
                    <path d="M157.562225,13.3747088 C157.562225,15.2079998 157.396677,16.6893299 157.065581,17.819666 C156.734486,18.950969 156.145871,19.939167 155.300706,20.78426 C154.698538,21.395357 154.054741,21.889456 153.367379,22.266557 C152.679048,22.643658 151.962642,22.9076287 151.220097,23.0604029 C150.476584,23.2131772 149.675952,23.2895643 148.821106,23.2895643 C146.343697,23.2895643 144.28161,22.4551075 142.630973,20.78426 C141.652208,19.8066982 141.030677,18.6966675 140.766381,17.4541681 C140.502086,16.2116686 140.369454,14.6326791 140.369454,12.7171994 L140.369454,11.9687989 L140.369454,11.2203985 C140.369454,9.30588573 140.502086,7.72399538 140.766381,6.47666131 C141.030677,5.22932724 141.652208,4.11639583 142.630973,3.13786708 C143.476138,2.29277407 144.388103,1.66717319 145.366868,1.25913057 C146.343697,0.852054872 147.495755,0.648033563 148.820138,0.648033563 C151.468903,0.648033563 153.509692,1.35679006 154.940567,2.77236919 C156.37241,4.1869814 157.23597,5.93905065 157.531245,8.02761003 L152.009112,8.02761003 C151.785477,7.15157541 151.428242,6.51533834 150.939344,6.1179319 C150.449477,5.72052546 149.739848,5.52133878 148.812393,5.52133878 C147.874289,5.52133878 147.155947,5.84815964 146.656399,6.49986752 C146.472457,6.73386353 146.321431,7.02200737 146.204289,7.36333212 C146.087147,7.70465687 145.99808,8.22873057 145.937089,8.93652013 C145.876097,9.6443097 145.845118,10.654747 145.845118,11.9687989 C145.845118,13.2828509 145.876097,14.2961889 145.937089,15.0088131 C145.99808,15.7224043 146.087147,16.2522795 146.204289,16.5984389 C146.321431,16.9445983 146.472457,17.234676 146.656399,17.468672 C147.145297,18.1010413 147.864608,18.4162591 148.812393,18.4162591 C149.884097,18.4162591 150.699251,18.1203798 151.260758,17.5295883 C151.820329,16.9697383 152.102051,16.180727 152.102051,15.1625543 L152.102051,14.841535 L148.812393,14.841535 L148.812393,10.2737783 L157.562225,10.2737783 L157.562225,13.3747088 Z" id="Fill-15" fill="#231F1F" mask="url(#mask-2)"></path>
                    <polygon id="Fill-16" fill="#231F1F" mask="url(#mask-2)" points="181.656791 5.70524804 176.16467 5.70524804 176.16467 23.1070087 170.689006 23.1070087 170.689006 5.70524804 165.197852 5.70524804 165.197852 0.831942819 181.656791 0.831942819"></polygon>
                    <path d="M193.742944,11.9696692 C193.742944,10.0754618 193.679049,8.78171534 193.551257,8.08842966 C193.423466,7.39707782 193.217257,6.86720257 192.932631,6.49977083 C192.728359,6.21452777 192.429211,5.98053176 192.037124,5.79778282 C191.644069,5.61406695 191.208417,5.52220901 190.729199,5.52220901 C190.260631,5.52220901 189.836597,5.6121331 189.459999,5.79004741 C189.082434,5.96796173 188.77651,6.20485851 188.542226,6.49977083 C188.358283,6.73473376 188.207257,7.02191068 188.091083,7.36323543 C187.972973,7.70456018 187.883907,8.22863387 187.822915,8.93642344 C187.761924,9.64517993 187.730944,10.6556172 187.730944,11.9696692 C187.730944,13.2730849 187.761924,14.2796545 187.822915,14.9874441 C187.883907,15.6952337 187.972973,16.2173735 188.091083,16.5528967 C188.207257,16.8893868 188.358283,17.173663 188.542226,17.4086259 C189.062104,18.0806392 189.791095,18.4161624 190.729199,18.4161624 C191.677953,18.4161624 192.411785,18.0806392 192.932631,17.4086259 C193.217257,17.0112194 193.423466,16.4784434 193.551257,15.8112647 C193.679049,15.144086 193.742944,13.8638765 193.742944,11.9696692 L193.742944,11.9696692 Z M199.218608,11.9696692 L199.218608,12.7180696 C199.218608,13.961536 199.175043,15.0299888 199.088881,15.9272958 C199.00175,16.8226689 198.79651,17.6890343 198.470254,18.5234911 C198.143999,19.3589149 197.644452,20.1131169 196.972579,20.7851302 C196.146776,21.6089509 195.237715,22.2335848 194.244428,22.6561313 C193.251141,23.0786778 192.081657,23.2904345 190.736944,23.2904345 C189.82982,23.2904345 189.01273,23.1956758 188.283739,23.0071253 C187.555715,22.8195418 186.882875,22.5420341 186.267153,22.1746024 C185.650463,21.8081375 185.066689,21.3449802 184.516799,20.7851302 C183.539002,19.8066015 182.917472,18.6975378 182.652208,17.4540714 C182.387912,16.2115719 182.255281,14.6335493 182.255281,12.7180696 L182.255281,11.9696692 L182.255281,11.2212687 C182.255281,9.30578903 182.387912,7.72486562 182.652208,6.47656462 C182.917472,5.22923054 183.539002,4.11629913 184.516799,3.13873731 C185.362933,2.29364431 186.276834,1.66804342 187.26044,1.2600008 C188.243078,0.85195818 189.402881,0.648903796 190.736944,0.648903796 C192.081657,0.648903796 193.248237,0.854858957 194.236683,1.2677362 C195.22513,1.68061345 196.137095,2.30428049 196.972579,3.13873731 C197.644452,3.81171756 198.143999,4.56785341 198.470254,5.40811179 C198.79651,6.24837017 199.00175,7.11666939 199.088881,8.01204253 C199.175043,8.90934952 199.218608,9.97780235 199.218608,11.2212687 L199.218608,11.9696692 Z" id="Fill-17" fill="#231F1F" mask="url(#mask-2)"></path>
                    <polygon id="Fill-18" fill="#231F1F" mask="url(#mask-2)" points="221.387592 23.1069121 206.227864 23.1069121 206.227864 0.832813052 221.387592 0.832813052 221.387592 5.70515134 211.704496 5.70515134 211.704496 9.4336166 219.979951 9.4336166 219.979951 14.3069218 211.704496 14.3069218 211.704496 18.2336068 221.387592 18.2336068"></polygon>
                    <polygon id="Fill-19" fill="#231F1F" mask="url(#mask-2)" points="240.799575 23.1069121 236.012242 23.1069121 228.868514 11.9079793 228.868514 23.1069121 223.391882 23.1069121 223.391882 0.832813052 228.18212 0.832813052 235.323911 12.0307789 235.323911 0.832813052 240.799575 0.832813052"></polygon>
                    <polygon id="Fill-20" fill="#231F1F" mask="url(#mask-2)" points="260.228888 23.1069121 254.752256 23.1069121 254.752256 14.2769471 248.924198 14.2769471 248.924198 23.1069121 243.448534 23.1069121 243.448534 0.832813052 248.924198 0.832813052 248.924198 9.40267498 254.752256 9.40267498 254.752256 0.832813052 260.228888 0.832813052"></polygon>
                    <path d="M272.86435,15.2240508 L270.9833,9.28035889 L268.9793,15.2240508 L272.86435,15.2240508 Z M281.064292,23.1064286 L275.342726,23.1064286 L274.302002,19.7918075 L267.434187,19.7918075 L266.347961,23.1064286 L260.611874,23.1064286 L268.719845,0.832329589 L272.956321,0.832329589 L281.064292,23.1064286 Z" id="Fill-21" fill="#231F1F" mask="url(#mask-2)"></path>
                    <polygon id="Fill-22" fill="#231F1F" mask="url(#mask-2)" points="298.855261 23.1069121 294.067928 23.1069121 286.924201 11.9079793 286.924201 23.1069121 281.447569 23.1069121 281.447569 0.832813052 286.237806 0.832813052 293.379598 12.0307789 293.379598 0.832813052 298.855261 0.832813052"></polygon>
                    <path d="M317.687246,16.0337543 C317.492655,17.2143705 317.144133,18.2712202 316.639745,19.2033366 C316.135357,20.1354529 315.508986,20.901258 314.760632,21.5026857 C314.01131,22.1041135 313.168081,22.5518 312.230945,22.8476793 C311.292841,23.1425916 310.294713,23.2905312 309.235594,23.2905312 C306.759154,23.2905312 304.697067,22.4551075 303.046429,20.7852269 C302.067664,19.8066982 301.446133,18.6976345 301.181838,17.4541681 C300.917542,16.2116686 300.78491,14.633646 300.78491,12.7181663 L300.78491,11.9697659 L300.78491,11.2213654 C300.78491,9.30588573 300.917542,7.72496231 301.181838,6.47666131 C301.446133,5.22932724 302.067664,4.11639583 303.046429,3.13883401 C303.881913,2.30437718 304.798719,1.67974322 305.796846,1.2678329 C306.794974,0.854955649 307.942191,0.648033563 309.235594,0.648033563 C310.346023,0.648033563 311.365449,0.798873962 312.291936,1.09958784 C313.219391,1.40030171 314.050035,1.84798828 314.782899,2.4445814 C315.51673,3.04020759 316.135357,3.79827729 316.639745,4.71975743 C317.144133,5.64220448 317.492655,6.70388883 317.687246,7.9057774 L312.118643,7.9057774 C311.92502,7.18251703 311.611351,6.60429549 311.178603,6.17207973 C310.744887,5.73889705 310.104962,5.5223057 309.258829,5.5223057 C308.790261,5.5223057 308.36913,5.60932901 307.996406,5.7824087 C307.623681,5.95548839 307.32647,6.17981514 307.101867,6.45442202 C306.908243,6.69905421 306.752377,6.99106575 306.635235,7.33335743 C306.518093,7.67468218 306.426122,8.19392124 306.36029,8.89107463 C306.29349,9.58919494 306.260574,10.615103 306.260574,11.9697659 C306.260574,13.7721152 306.326406,15.0378209 306.459038,15.7659159 C306.59167,16.4949778 306.805623,17.0625632 307.101867,17.468672 C307.591733,18.1010413 308.310075,18.4162591 309.258829,18.4162591 C310.084632,18.4162591 310.719716,18.1996677 311.163113,17.767452 C311.60651,17.3352362 311.92502,16.7560478 312.118643,16.0337543 L317.687246,16.0337543 Z" id="Fill-23" fill="#231F1F" mask="url(#mask-2)"></path>
                    <polygon id="Fill-24" fill="#231F1F" mask="url(#mask-2)" points="333.857397 23.1069121 318.697669 23.1069121 318.697669 0.832813052 333.857397 0.832813052 333.857397 5.70515134 324.174301 5.70515134 324.174301 9.4336166 332.449756 9.4336166 332.449756 14.3069218 324.174301 14.3069218 324.174301 18.2336068 333.857397 18.2336068"></polygon>
                    <polygon id="Fill-25" fill="#231F1F" mask="url(#mask-2)" points="22.4410243 38.0953231 14.472462 53.7247091 14.472462 64.4701537 7.98802145 64.4701537 7.98802145 53.7247091 9.68115943e-05 38.0953231 7.08767362 38.0953231 11.2563809 47.5740951 15.3650649 38.0953231"></polygon>
                    <path d="M35.6476748,51.2827384 C35.6476748,49.0394709 35.5721617,47.5078607 35.4211357,46.6869408 C35.2691414,45.8679548 35.0261443,45.241387 34.6873038,44.8062705 C34.4462429,44.4688134 34.0919125,44.1913057 33.6272168,43.9737475 C33.1625212,43.7571561 32.6465154,43.6478935 32.0791994,43.6478935 C31.524469,43.6478935 31.0220168,43.7542554 30.5757154,43.9650451 C30.1294139,44.1758349 29.7663704,44.4572103 29.4894893,44.8062705 C29.2726313,45.0837781 29.0935299,45.4241359 28.9550893,45.8283109 C28.8156806,46.2334527 28.7101559,46.853252 28.6375472,47.6915766 C28.5659067,48.5299011 28.5291183,49.7259881 28.5291183,51.2827384 C28.5291183,52.8259517 28.5659067,54.0172041 28.6375472,54.8555286 C28.7101559,55.6938531 28.8156806,56.3117186 28.9550893,56.7091251 C29.0935299,57.1074984 29.2726313,57.4449555 29.4894893,57.7224631 C30.105211,58.5182429 30.9678023,58.9166163 32.0791994,58.9166163 C33.2022139,58.9166163 34.071582,58.5182429 34.6873038,57.7224631 C35.0261443,57.2515703 35.2691414,56.6221018 35.4211357,55.8321235 C35.5721617,55.0421453 35.6476748,53.5260059 35.6476748,51.2827384 L35.6476748,51.2827384 Z M42.1311472,51.2827384 L42.1311472,52.1684423 C42.1311472,53.64107 42.0798371,54.9067757 41.9781849,55.96846 C41.8745965,57.0291774 41.6306313,58.0541186 41.2453212,59.0423166 C40.8590429,60.0314816 40.2675241,60.9249208 39.4717328,61.7207006 C38.4939357,62.6972955 37.4173907,63.4360267 36.2411299,63.9359273 C35.064869,64.4367948 33.6804632,64.6872285 32.0879125,64.6872285 C31.0142719,64.6872285 30.0461559,64.5750651 29.1835646,64.3526722 C28.3209733,64.1293124 27.5242139,63.8005577 26.7952226,63.3664081 C26.0652632,62.9322585 25.3749965,62.3840116 24.7234545,61.7207006 C23.5646197,60.5623237 22.8288516,59.2492387 22.5161501,57.776611 C22.2024806,56.3059171 22.0446777,54.4368498 22.0446777,52.1684423 L22.0446777,51.2827384 L22.0446777,50.3970345 C22.0446777,48.1286269 22.2024806,46.2566589 22.5161501,44.7791965 C22.8288516,43.3017342 23.5646197,41.9838145 24.7234545,40.8264045 C25.7244864,39.8256365 26.80684,39.0840045 27.9714835,38.6015086 C29.136127,38.1190127 30.5079472,37.8772813 32.0879125,37.8772813 C33.6804632,37.8772813 35.0619646,38.1219135 36.2324168,38.610211 C37.402869,39.0994753 38.4823183,39.8382065 39.4717328,40.8264045 C40.2675241,41.6231513 40.8590429,42.5175575 41.2453212,43.512524 C41.6306313,44.5074904 41.8745965,45.5362993 41.9781849,46.5970167 C42.0798371,47.6587011 42.1311472,48.9244067 42.1311472,50.3970345 L42.1311472,51.2827384 Z" id="Fill-26" fill="#231F1F" mask="url(#mask-2)"></path>
                    <path d="M63.9954649,55.2078763 C63.9954649,56.5954146 63.7350417,57.8794919 63.2161316,59.061075 C62.6962533,60.243625 61.9721026,61.2569631 61.0427113,62.1001223 C60.1123519,62.9442483 59.0387113,63.5872539 57.8188852,64.0262381 C56.5990591,64.4671562 55.3075925,64.6866483 53.942549,64.6866483 C52.1437896,64.6866483 50.4747577,64.2950435 48.9344852,63.5118337 C47.3951809,62.727657 46.1821316,61.6147256 45.2934012,60.1740064 C44.406607,58.7323203 43.9632099,57.0769436 43.9632099,55.2078763 L43.9632099,38.0952264 L50.4466823,38.0952264 L50.4466823,55.0638044 C50.4466823,56.2695607 50.7584157,57.2132801 51.3818823,57.8949627 C52.0063171,58.5756783 52.8621316,58.9160361 53.951262,58.9160361 C54.6541142,58.9160361 55.2766128,58.7661627 55.821662,58.4644819 C56.3667113,58.163768 56.7849374,57.7228499 57.0744041,57.1436614 C57.365807,56.5654399 57.5110243,55.8711873 57.5110243,55.0638044 L57.5110243,38.0952264 L63.9954649,38.0952264 L63.9954649,55.2078763 Z" id="Fill-27" fill="#231F1F" mask="url(#mask-2)"></path>
                    <path d="M79.664131,46.5883144 C79.664131,46.1193555 79.5518296,45.6803712 79.3281948,45.2723286 C79.10456,44.8633191 78.7773368,44.5364982 78.3474933,44.2899322 C77.9176499,44.0423992 77.418102,43.9205666 76.8488499,43.9205666 L73.1622643,43.9205666 L73.1622643,49.2386576 L76.8488499,49.2386576 C77.418102,49.2386576 77.9176499,49.1148911 78.3474933,48.869292 C78.7773368,48.6227259 79.10456,48.2978389 79.3281948,47.8955979 C79.5518296,47.4933568 79.664131,47.0572733 79.664131,46.5883144 L79.664131,46.5883144 Z M87.5436267,64.4706372 L80.0436325,64.4706372 L75.3598875,54.6476396 L73.1622643,54.6476396 L73.1622643,64.4706372 L66.6778238,64.4706372 L66.6778238,38.0958065 L77.1373484,38.0958065 C79.0309832,38.0958065 80.6535455,38.4893453 82.0040672,39.2793235 C83.3555571,40.0693018 84.3836962,41.1097137 85.0894528,42.4005595 C85.7961774,43.6904383 86.1485716,45.0837781 86.1485716,46.5796121 C86.1485716,48.232088 85.7303455,49.6447663 84.8929252,50.8215149 C84.056473,51.9972964 83.0418875,52.8800995 81.8501368,53.4708911 L87.5436267,64.4706372 Z" id="Fill-28" fill="#231F1F" mask="url(#mask-2)"></path>
                    <polygon id="Fill-29" fill="#231F1F" mask="url(#mask-2)" points="134.035265 64.5207239 116.052511 64.5207239 116.052511 38.0946462 134.035265 38.0946462 134.035265 43.8778285 122.549537 43.8778285 122.549537 48.3005463 132.367201 48.3005463 132.367201 54.0808278 122.549537 54.0808278 122.549537 58.7385086 134.035265 58.7385086"></polygon>
                    <path d="M148.681891,46.604172 C148.681891,46.13618 148.56959,45.6962288 148.344019,45.2862523 C148.12232,44.8772428 147.794129,44.549455 147.362349,44.3009551 C146.931537,44.055356 146.432958,43.9315895 145.860801,43.9315895 L142.168407,43.9315895 L142.168407,49.2603167 L145.860801,49.2603167 C146.432958,49.2603167 146.931537,49.1365502 147.362349,48.8909511 C147.794129,48.6424512 148.12232,48.3175642 148.344019,47.9143562 C148.56959,47.5121152 148.681891,47.0740978 148.681891,46.604172 L148.681891,46.604172 Z M156.575908,64.5203371 L149.061392,64.5203371 L144.370871,54.6799349 L142.168407,54.6799349 L142.168407,64.5203371 L135.670413,64.5203371 L135.670413,38.0952264 L146.151236,38.0952264 C148.046807,38.0952264 149.673242,38.490699 151.027636,39.283578 C152.379126,40.0745232 153.410169,41.116869 154.117862,42.4106155 C154.825555,43.7024281 155.178917,45.0967349 155.178917,46.5974035 C155.178917,48.2518133 154.759723,49.6673924 153.921334,50.8470417 C153.081978,52.0237902 152.065456,52.9085271 150.872737,53.5002856 L156.575908,64.5203371 Z" id="Fill-30" fill="#231F1F" mask="url(#mask-2)"></path>
                    <polygon id="Fill-31" fill="#231F1F" mask="url(#mask-2)" points="174.905732 43.8778285 163.420004 43.8778285 163.420004 48.5161707 173.237668 48.5161707 173.237668 54.2983861 163.420004 54.2983861 163.420004 64.5207239 156.922978 64.5207239 156.922978 38.0956131 174.905732 38.0956131"></polygon>
                    <path d="M188.879904,51.3079751 C188.879904,49.0618069 188.805359,47.526329 188.655301,46.7044422 C188.502339,45.8835223 188.256438,45.2540537 187.919533,44.820871 C187.677504,44.4814801 187.324142,44.2030055 186.85751,43.9854473 C186.391846,43.767889 185.873904,43.6605603 185.306588,43.6605603 C184.748954,43.6605603 184.24747,43.7659552 183.8002,43.975778 C183.35293,44.1894686 182.988919,44.469877 182.710101,44.820871 C182.492275,45.0974118 182.314142,45.4387365 182.17667,45.8438784 C182.035325,46.2480533 181.930768,46.8707534 181.857191,47.7110118 C181.784583,48.5512701 181.74973,49.749291 181.74973,51.3079751 C181.74973,52.8550562 181.784583,54.0482424 181.857191,54.8885008 C181.930768,55.7287592 182.035325,56.3466246 182.17667,56.7469319 C182.314142,57.1443383 182.492275,57.4837292 182.710101,57.7602699 C183.328728,58.5579836 184.193255,58.95539 185.306588,58.95539 C186.431539,58.95539 187.302843,58.5579836 187.919533,57.7602699 C188.256438,57.2893771 188.502339,56.6579747 188.655301,55.8670295 C188.805359,55.0760844 188.879904,53.5541434 188.879904,51.3079751 L188.879904,51.3079751 Z M195.37693,51.3079751 L195.37693,52.1975467 C195.37693,53.6711414 195.32562,54.9397478 195.223,56.0023991 C195.119412,57.0650504 194.875446,58.0919254 194.489168,59.0839911 C194.10289,60.074123 193.509435,60.9685292 192.713643,61.7662428 C191.73391,62.7447716 190.653493,63.4844697 189.475296,63.987271 C188.29613,64.4881385 186.909788,64.7385723 185.31627,64.7385723 C184.240693,64.7385723 183.270641,64.6264089 182.406113,64.404016 C181.541586,64.1787223 180.741922,63.8490007 180.010994,63.415818 C179.280067,62.9807014 178.588832,62.4305208 177.935354,61.7662428 C176.775551,60.6059321 176.037846,59.2880124 175.723209,57.8134508 C175.409539,56.34179 175.252704,54.4669212 175.252704,52.1975467 L175.252704,51.3079751 L175.252704,50.4213043 C175.252704,48.1490291 175.409539,46.2722264 175.723209,44.7928302 C176.037846,43.313434 176.775551,41.9916466 177.935354,40.8332697 C178.938322,39.8296009 180.022612,39.087002 181.190159,38.6025723 C182.356739,38.1210433 183.732432,37.877378 185.31627,37.877378 C186.909788,37.877378 188.294194,38.1229771 189.465614,38.6122415 C190.639939,39.1015059 191.719388,39.841204 192.713643,40.8332697 C193.509435,41.6309834 194.10289,42.5273234 194.489168,43.5242238 C194.875446,44.5211241 195.119412,45.5508999 195.223,46.6135512 C195.32562,47.6781363 195.37693,48.9467427 195.37693,50.4213043 L195.37693,51.3079751 Z" id="Fill-32" fill="#231F1F" mask="url(#mask-2)"></path>
                    <path d="M209.934877,46.604172 C209.934877,46.13618 209.822576,45.6962288 209.597005,45.2862523 C209.375306,44.8772428 209.047115,44.549455 208.615335,44.3009551 C208.184523,44.055356 207.685944,43.9315895 207.113787,43.9315895 L203.421393,43.9315895 L203.421393,49.2603167 L207.113787,49.2603167 C207.685944,49.2603167 208.184523,49.1365502 208.615335,48.8909511 C209.047115,48.6424512 209.375306,48.3175642 209.597005,47.9143562 C209.822576,47.5121152 209.934877,47.0740978 209.934877,46.604172 L209.934877,46.604172 Z M217.828894,64.5203371 L210.314379,64.5203371 L205.623857,54.6799349 L203.421393,54.6799349 L203.421393,64.5203371 L196.923399,64.5203371 L196.923399,38.0952264 L207.404222,38.0952264 C209.299793,38.0952264 210.926228,38.490699 212.280622,39.283578 C213.632112,40.0745232 214.663155,41.116869 215.370848,42.4106155 C216.078541,43.7024281 216.431903,45.0967349 216.431903,46.5974035 C216.431903,48.2518133 216.012709,49.6673924 215.174321,50.8470417 C214.334964,52.0237902 213.318442,52.9085271 212.125723,53.5002856 L217.828894,64.5203371 Z" id="Fill-33" fill="#231F1F" mask="url(#mask-2)"></path>
                    <polygon id="Fill-34" fill="#231F1F" mask="url(#mask-2)" points="243.57923 64.5207239 237.08414 64.5207239 237.08414 51.8694689 233.325914 58.3942831 229.171728 58.3942831 225.415438 51.8694689 225.415438 64.5207239 218.918412 64.5207239 218.918412 38.0946462 225.305073 38.0946462 231.240592 49.7490009 237.191601 38.0946462 243.57923 38.0946462"></polygon>
                    <path d="M259.393888,55.169296 L257.163348,48.1184742 L254.784688,55.169296 L259.393888,55.169296 Z M269.122485,64.5204338 L262.334056,64.5204338 L261.099708,60.5869803 L252.953012,60.5869803 L251.66445,64.5204338 L244.859563,64.5204338 L254.477795,38.0953231 L259.504253,38.0953231 L269.122485,64.5204338 Z" id="Fill-35" fill="#231F1F" mask="url(#mask-2)"></path>
                    <polygon id="Fill-36" fill="#231F1F" mask="url(#mask-2)" points="291.061928 64.5207239 285.381992 64.5207239 276.907105 51.2351656 276.907105 64.5207239 270.410079 64.5207239 270.410079 38.0946462 276.091951 38.0946462 284.564902 51.3802045 284.564902 38.0946462 291.061928 38.0946462"></polygon>
                    <path d="M312.658078,56.1287763 C312.428634,57.5308185 312.013312,58.784921 311.415985,59.8891501 C310.818657,60.99628 310.073208,61.9042231 309.185446,62.6178143 C308.297683,63.3323723 307.296652,63.8632145 306.186223,64.2122746 C305.073857,64.5632686 303.889852,64.7382822 302.632269,64.7382822 C299.695973,64.7382822 297.247608,63.7481503 295.28911,61.7659528 C294.129307,60.605642 293.390634,59.2877224 293.076965,57.8141277 C292.763295,56.3414999 292.605492,54.467598 292.605492,52.1972566 L292.605492,51.3076851 L292.605492,50.4210143 C292.605492,48.148739 292.763295,46.2719363 293.076965,44.7925401 C293.390634,43.3141108 294.129307,41.9913565 295.28911,40.8329796 C296.279492,39.8409139 297.369591,39.1012158 298.552628,38.6119514 C299.73857,38.123654 301.096837,37.8770879 302.632269,37.8770879 C303.948907,37.8770879 305.158083,38.057903 306.258831,38.4137317 C307.357643,38.7695603 308.342217,39.3004025 309.213521,40.0072251 C310.082889,40.7140478 310.818657,41.6152225 311.415985,42.7078484 C312.013312,43.8033752 312.428634,45.0623124 312.658078,46.4875608 L306.052623,46.4875608 C305.823179,45.6308646 305.450454,44.9453144 304.937353,44.429943 C304.422315,43.9174724 303.663312,43.6602702 302.660344,43.6602702 C302.10271,43.6602702 301.603162,43.7627643 301.162669,43.9687195 C300.72024,44.1727408 300.36591,44.4396123 300.101614,44.7644993 C299.87217,45.054577 299.686292,45.4036371 299.54882,45.808779 C299.407475,46.2129539 299.300014,46.8288855 299.220628,47.6575408 C299.141243,48.4832953 299.103486,49.7025885 299.103486,51.3076851 C299.103486,53.4465246 299.180936,54.949127 299.33777,55.8125916 C299.496541,56.6760562 299.750188,57.3500034 300.101614,57.8324993 C300.682483,58.5808997 301.535394,58.9560669 302.660344,58.9560669 C303.63911,58.9560669 304.391336,58.7007985 304.918959,58.1854271 C305.445614,57.6729565 305.823179,56.9874063 306.052623,56.1287763 L312.658078,56.1287763 Z" id="Fill-37" fill="#231F1F" mask="url(#mask-2)"></path>
                    <polygon id="Fill-38" fill="#231F1F" mask="url(#mask-2)" points="332.476476 64.5207239 314.493722 64.5207239 314.493722 38.0946462 332.476476 38.0946462 332.476476 43.8778285 320.990748 43.8778285 320.990748 48.3005463 330.808412 48.3005463 330.808412 54.0808278 320.990748 54.0808278 320.990748 58.7385086 332.476476 58.7385086"></polygon>
                    <path d="M104.569301,43.6627842 C106.91795,43.6627842 108.827075,45.5705285 108.827075,47.9153232 C108.828043,50.257217 106.935376,52.1968699 104.577046,52.1678621 L101.35322,43.6627842 L104.569301,43.6627842 Z M113.473063,47.9153232 C113.473063,43.0120432 109.478617,39.0225081 104.569301,39.0225081 L94.625782,39.0225081 L104.01457,64.1848139 L109.110733,64.1848139 L106.271249,56.6408601 C110.369283,55.8450803 113.473063,52.2374808 113.473063,47.9153232 L113.473063,47.9153232 Z" id="Fill-39" fill="#231F1F" mask="url(#mask-2)"></path>
                    <path d="M102.223169,44.2627616 L104.983267,51.5524139 C105.791644,51.4702253 106.54387,51.1172974 107.134421,50.5342412 C107.839209,49.8390217 108.228392,48.9078723 108.228392,47.9158066 C108.228392,45.9007336 106.586467,44.2627616 104.568914,44.2627616 L102.223169,44.2627616 Z M104.627001,52.7668725 L104.568914,52.7668725 L104.158432,52.7620379 L100.484432,43.0647407 L104.568914,43.0647407 C107.248659,43.0647407 109.427888,45.2412903 109.427888,47.9158066 C109.427888,49.2308255 108.91285,50.4646226 107.97765,51.3890035 C107.075366,52.2776082 105.887488,52.7668725 104.627001,52.7668725 L104.627001,52.7668725 Z M104.430473,63.5858035 L108.24485,63.5858035 L105.461517,56.1888224 L106.157592,56.0524859 C110.049418,55.29635 112.872444,51.8753671 112.872444,47.9158066 C112.872444,43.3432153 109.147134,39.6224854 104.568914,39.6224854 L95.4889542,39.6224854 L104.430473,63.5858035 Z M109.978746,64.7838244 L103.595957,64.7838244 L93.7598991,38.4234976 L104.568914,38.4234976 C109.807389,38.4234976 114.07194,42.6828051 114.07194,47.9158066 C114.07194,52.2099234 111.169528,55.9519256 107.07343,57.0687247 L109.978746,64.7838244 Z" id="Fill-40" fill="#231F1F" mask="url(#mask-2)"></path>
                </g>
            </g>
        </g>
    </g>
</svg>