<?xml version="1.0" encoding="UTF-8" standalone="no"?>
<svg width="16px" height="29px" viewBox="0 0 16 29" version="1.1" xmlns="http://www.w3.org/2000/svg" xmlns:xlink="http://www.w3.org/1999/xlink">
    <!-- Generator: Sketch 40.3 (33839) - http://www.bohemiancoding.com/sketch -->
    <title></title>
    <desc>Created with Sketch.</desc>
    <defs></defs>
    <g id="Page-1" stroke="none" stroke-width="1" fill="none" fill-rule="evenodd">
        <g id="Desktop-HD-Copy" transform="translate(-732.000000, -762.000000)" fill="#231F20">
            <path d="M747.054688,762.486607 L747.054688,766.90625 L744.426339,766.90625 C743.466513,766.90625 742.819198,767.107141 742.484375,767.508929 C742.149552,767.910716 741.982143,768.513389 741.982143,769.316964 L741.982143,772.481027 L746.887277,772.481027 L746.234375,777.436384 L741.982143,777.436384 L741.982143,790.142857 L736.859375,790.142857 L736.859375,777.436384 L732.590402,777.436384 L732.590402,772.481027 L736.859375,772.481027 L736.859375,768.831473 C736.859375,766.75557 737.439726,765.145653 738.600446,764.001674 C739.761167,762.857695 741.30691,762.285714 743.237723,762.285714 C744.878356,762.285714 746.150665,762.352678 747.054688,762.486607 L747.054688,762.486607 Z" id=""></path>
        </g>
    </g>
</svg>