<?xml version="1.0" encoding="UTF-8" standalone="no"?>
<svg width="246px" height="69px" viewBox="0 0 246 69" version="1.1" xmlns="http://www.w3.org/2000/svg" xmlns:xlink="http://www.w3.org/1999/xlink">
    <!-- Generator: Sketch 40.3 (33839) - http://www.bohemiancoding.com/sketch -->
    <title>Page 1</title>
    <desc>Created with Sketch.</desc>
    <defs>
        <polygon id="path-1" points="0 68.8504709 245.908728 68.8504709 245.908728 -0.000174683544 0 -0.000174683544"></polygon>
    </defs>
    <g id="Page-1" stroke="none" stroke-width="1" fill="none" fill-rule="evenodd">
        <g id="Desktop-HD-Copy" transform="translate(-310.000000, -495.000000)">
            <g id="Page-1" transform="translate(310.000000, 495.000000)">
                <path d="M1.6377689,63.1475772 C1.6377689,64.2533241 1.67775477,65.0009696 1.75685724,65.3922608 C1.82552862,65.7826785 1.96721767,66.0988557 2.18018587,66.3407924 C2.3531682,66.5722481 2.58178304,66.7600329 2.86342261,66.9032734 C3.14158516,67.0735899 3.4736417,67.1583114 3.85959223,67.1583114 C4.2507583,67.1583114 4.59063816,67.0735899 4.87749329,66.9032734 C5.15044028,66.7600329 5.36862403,66.5722481 5.53204452,66.3407924 C5.74501272,66.0988557 5.89104806,65.7826785 5.97015053,65.3922608 C6.04403746,65.0009696 6.08141555,64.2533241 6.08141555,63.1475772 C6.08141555,62.0418304 6.04403746,61.2889443 5.97015053,60.8880456 C5.89104806,60.5072354 5.74501272,60.1962987 5.53204452,59.954362 C5.36862403,59.7229063 5.15044028,59.5307544 4.87749329,59.3761595 C4.59063816,59.2268051 4.2507583,59.1473241 3.85959223,59.136843 C3.4736417,59.1473241 3.14158516,59.2268051 2.86342261,59.3761595 C2.58178304,59.5307544 2.3531682,59.7229063 2.18018587,59.954362 C1.96721767,60.1962987 1.82552862,60.5072354 1.75685724,60.8880456 C1.67775477,61.2889443 1.6377689,62.0418304 1.6377689,63.1475772 L1.6377689,63.1475772 Z M8.69257947e-05,63.1475772 C8.69257947e-05,61.8418177 0.0365957597,60.9675266 0.111351943,60.5255772 C0.190454417,60.0836278 0.311281272,59.7255266 0.474701767,59.4530203 C0.73634841,58.9377038 1.15706926,58.4774127 1.7351258,58.0730203 C2.30362049,57.6642608 3.01293498,57.4555139 3.86393852,57.4450329 C4.72363463,57.4555139 5.44077244,57.6651342 6.01448269,58.0756405 C6.58297739,58.4809063 6.99326714,58.9429443 7.24535194,59.460881 C7.42789611,59.7333873 7.55393852,60.0897418 7.62260989,60.5308177 C7.68693498,60.9718937 7.71909753,61.844438 7.71909753,63.1475772 C7.71909753,64.4306278 7.68693498,65.2970582 7.62260989,65.7486152 C7.55393852,66.2001722 7.42789611,66.5626405 7.24448269,66.8342734 C6.99239788,67.3522101 6.58210813,67.8090076 6.01361343,68.2037924 C5.43990318,68.6142987 4.72363463,68.8300329 3.86306926,68.8501215 C3.01293498,68.8300329 2.30362049,68.6142987 1.7351258,68.2037924 C1.15706926,67.8090076 0.73634841,67.3522101 0.474701767,66.8342734 C0.395599293,66.6648304 0.323450883,66.5032481 0.259995053,66.3495266 C0.200016254,66.1905646 0.150468551,65.9905519 0.111351943,65.7486152 C0.0365957597,65.2970582 8.69257947e-05,64.4306278 8.69257947e-05,63.1475772 L8.69257947e-05,63.1475772 Z" id="Fill-1" fill="#231F1F"></path>
                <polygon id="Fill-3" fill="#231F1F" points="12.2874827 57.5370038 13.8312848 57.5370038 18.7304226 65.5139278 18.7599774 65.5139278 18.7599774 57.5370038 20.3976594 57.5370038 20.3976594 68.7578013 18.8460339 68.7578013 13.9547194 60.7808772 13.9251647 60.7808772 13.9251647 68.7578013 12.2874827 68.7578013"></polygon>
                <polygon id="Fill-5" fill="#231F1F" points="25.3715534 57.5370038 27.0092353 57.5370038 27.0092353 67.1577 32.2821541 67.1577 32.2821541 68.7578013 25.3715534 68.7578013"></polygon>
                <mask id="mask-2" fill="white">
                    <use xlink:href="#path-1"></use>
                </mask>
                <g id="Clip-8"></g>
                <polygon id="Fill-7" fill="#231F1F" mask="url(#mask-2)" points="36.4488551 68.7578886 38.0865371 68.7578886 38.0865371 57.5370911 36.4488551 57.5370911"></polygon>
                <polygon id="Fill-9" fill="#231F1F" mask="url(#mask-2)" points="42.8459852 57.5370038 44.3897873 57.5370038 49.2889251 65.5139278 49.3184799 65.5139278 49.3184799 57.5370038 50.9561618 57.5370038 50.9561618 68.7578013 49.4045364 68.7578013 44.5132219 60.7808772 44.4836671 60.7808772 44.4836671 68.7578013 42.8459852 68.7578013"></polygon>
                <polygon id="Fill-10" fill="#231F1F" mask="url(#mask-2)" points="55.9300558 57.5370038 62.8406565 57.5370038 62.8406565 59.1371051 57.5677378 59.1371051 57.5677378 62.3477886 62.0687555 62.3477886 62.0687555 63.8544342 57.5677378 63.8544342 57.5677378 67.1577 62.8406565 67.1577 62.8406565 68.7578013 55.9300558 68.7578013"></polygon>
                <polygon id="Fill-11" fill="#231F1F" mask="url(#mask-2)" points="74.9594163 59.0447848 71.9943774 59.0447848 71.9943774 57.5372658 79.5638756 57.5372658 79.5638756 59.0447848 76.5970982 59.0447848 76.5970982 68.7580633 74.9594163 68.7580633"></polygon>
                <path d="M84.9552742,62.4556557 L87.4396134,62.4556557 C88.0541788,62.4451747 88.5157548,62.2600101 88.8226028,61.900162 C89.1251046,61.565643 89.2763555,61.1542633 89.2763555,60.6651494 C89.2667936,60.0790861 89.085988,59.6546051 88.7339385,59.3917063 C88.455776,59.1602506 88.0541788,59.0449595 87.529147,59.0449595 L84.9552742,59.0449595 L84.9552742,62.4556557 Z M83.3175922,57.5374405 L87.5439244,57.5374405 C88.4453449,57.5374405 89.1807371,57.7837443 89.7501011,58.2754785 C90.4350763,58.8353392 90.7932106,59.6327696 90.8227654,60.6695165 C90.8027724,62.1936304 90.1064968,63.2295038 88.7339385,63.7788835 L91.2374014,68.758238 L89.2920021,68.758238 L87.0527936,63.9623013 L84.9552742,63.9623013 L84.9552742,68.758238 L83.3175922,68.758238 L83.3175922,57.5374405 Z" id="Fill-12" fill="#231F1F" mask="url(#mask-2)"></path>
                <path d="M100.313237,64.7414772 L98.7477032,59.8319962 L98.7181484,59.8319962 L97.1526148,64.7414772 L100.313237,64.7414772 Z M100.780898,66.2481228 L96.678,66.2481228 L95.8469894,68.7583253 L94.1110813,68.7583253 L98.0436042,57.5366544 L99.4152933,57.5366544 L103.347816,68.7583253 L101.618862,68.7583253 L100.780898,66.2481228 Z" id="Fill-13" fill="#231F1F" mask="url(#mask-2)"></path>
                <polygon id="Fill-14" fill="#231F1F" mask="url(#mask-2)" points="107.156905 68.7578886 108.794587 68.7578886 108.794587 57.5370911 107.156905 57.5370911"></polygon>
                <polygon id="Fill-15" fill="#231F1F" mask="url(#mask-2)" points="113.554382 57.5370038 115.098184 57.5370038 119.997322 65.5139278 120.026877 65.5139278 120.026877 57.5370038 121.664559 57.5370038 121.664559 68.7578013 120.112934 68.7578013 115.221619 60.7808772 115.192064 60.7808772 115.192064 68.7578013 113.554382 68.7578013"></polygon>
                <polygon id="Fill-16" fill="#231F1F" mask="url(#mask-2)" points="126.638714 68.7578886 128.276396 68.7578886 128.276396 57.5370911 126.638714 57.5370911"></polygon>
                <polygon id="Fill-17" fill="#231F1F" mask="url(#mask-2)" points="133.035757 57.5370038 134.579559 57.5370038 139.478697 65.5139278 139.508252 65.5139278 139.508252 57.5370038 141.145934 57.5370038 141.145934 68.7578013 139.594308 68.7578013 134.702994 60.7808772 134.673439 60.7808772 134.673439 68.7578013 133.035757 68.7578013"></polygon>
                <path d="M149.626675,62.5864937 L153.471403,62.5864937 L153.471403,64.8687342 C153.45141,65.9910759 153.081106,66.9317468 152.358753,67.6898734 C151.632053,68.4427595 150.717594,68.8296835 149.615375,68.8506456 C148.76524,68.8296835 148.055926,68.6148228 147.487431,68.2043165 C146.908505,67.8086582 146.488654,67.3527342 146.227007,66.8339241 C146.147905,66.664481 146.075756,66.5028987 146.011431,66.3491772 C145.952322,66.1902152 145.902774,65.9902025 145.863657,65.7491392 C145.788901,65.2975823 145.752392,64.4302785 145.752392,63.1472278 C145.752392,61.8440886 145.788901,60.9724177 145.863657,60.5304684 C145.94276,60.0893924 146.063587,59.733038 146.227007,59.4614051 C146.488654,58.9425949 146.908505,58.4814304 147.487431,58.0761646 C148.055926,57.6656582 148.76524,57.4551646 149.615375,57.4446835 C150.658484,57.4551646 151.508618,57.7757089 152.166647,58.4063165 C152.823806,59.043038 153.239311,59.8299873 153.412293,60.7689114 L151.674647,60.7689114 C151.540781,60.3156076 151.298258,59.9286835 150.947078,59.6090127 C150.580251,59.3050633 150.135191,59.1469747 149.610159,59.1373671 C149.224208,59.1469747 148.892152,59.2273291 148.614859,59.3758101 C148.333219,59.5304051 148.105473,59.7234304 147.931622,59.9548861 C147.718654,60.1959494 147.577834,60.5077595 147.508293,60.8876962 C147.429191,61.2885949 147.390074,62.0423544 147.390074,63.1472278 C147.390074,64.2529747 147.429191,65.0014937 147.508293,65.3919114 C147.577834,65.7823291 147.719523,66.0985063 147.932491,66.340443 C148.105473,66.5718987 148.333219,66.7596835 148.615728,66.9037975 C148.893021,67.0732405 149.225078,67.157962 149.611898,67.157962 C150.250802,67.157962 150.778442,66.9317468 151.194816,66.478443 C151.611191,66.0461013 151.824159,65.4775063 151.833721,64.7726582 L151.833721,64.1857215 L149.626675,64.1857215 L149.626675,62.5864937 Z" id="Fill-18" fill="#231F1F" mask="url(#mask-2)"></path>
                <path d="M165.791048,62.7789076 L168.222363,62.7789076 C168.831712,62.7684266 169.289811,62.572781 169.597529,62.1910975 C169.889599,61.8198949 170.035635,61.4076418 170.035635,60.954338 C170.035635,60.5778949 169.976525,60.2608443 169.857437,60.0031861 C169.733133,59.770857 169.560151,59.5883127 169.336751,59.4538063 C169.000348,59.2328316 168.608313,59.1271481 168.162384,59.1367557 L165.791048,59.1367557 L165.791048,62.7789076 Z M164.153366,57.5366544 L168.074589,57.5366544 C168.500525,57.5366544 168.910815,57.5785785 169.307196,57.6598063 C169.703578,57.7681101 170.104306,57.9882114 170.510249,58.321857 C170.850999,58.5734013 171.127423,58.9323759 171.340391,59.3996544 C171.562052,59.8512114 171.673317,60.3839962 171.673317,60.9997557 C171.673317,61.8312494 171.391677,62.5876291 170.826659,63.2697684 C170.247734,63.9885911 169.401076,64.3580468 168.286688,64.3781354 L165.791048,64.3781354 L165.791048,68.7583253 L164.153366,68.7583253 L164.153366,57.5366544 Z" id="Fill-19" fill="#231F1F" mask="url(#mask-2)"></path>
                <path d="M177.442842,62.4556557 L179.927182,62.4556557 C180.541747,62.4451747 181.003323,62.2600101 181.310171,61.900162 C181.612673,61.565643 181.763924,61.1542633 181.763924,60.6651494 C181.754362,60.0790861 181.573556,59.6546051 181.221507,59.3917063 C180.943344,59.1602506 180.541747,59.0449595 180.016715,59.0449595 L177.442842,59.0449595 L177.442842,62.4556557 Z M175.80516,57.5374405 L180.031493,57.5374405 C180.932913,57.5374405 181.668305,57.7837443 182.237669,58.2754785 C182.922645,58.8353392 183.280779,59.6327696 183.310334,60.6695165 C183.290341,62.1936304 182.594065,63.2295038 181.221507,63.7788835 L183.72497,68.758238 L181.77957,68.758238 L179.540362,63.9623013 L177.442842,63.9623013 L177.442842,68.758238 L175.80516,68.758238 L175.80516,57.5374405 Z" id="Fill-20" fill="#231F1F" mask="url(#mask-2)"></path>
                <path d="M188.99502,63.1475772 C188.99502,64.2533241 189.035006,65.0009696 189.114108,65.3922608 C189.18278,65.7826785 189.324469,66.0988557 189.537437,66.3407924 C189.710419,66.5722481 189.939034,66.7600329 190.220673,66.9032734 C190.498836,67.0735899 190.830893,67.1583114 191.216843,67.1583114 C191.608009,67.1583114 191.947889,67.0735899 192.234744,66.9032734 C192.507691,66.7600329 192.725875,66.5722481 192.889295,66.3407924 C193.102264,66.0988557 193.248299,65.7826785 193.327401,65.3922608 C193.401288,65.0009696 193.438666,64.2533241 193.438666,63.1475772 C193.438666,62.0418304 193.401288,61.2889443 193.327401,60.8880456 C193.248299,60.5072354 193.102264,60.1962987 192.889295,59.954362 C192.725875,59.7229063 192.507691,59.5307544 192.234744,59.3761595 C191.947889,59.2268051 191.608009,59.1473241 191.216843,59.136843 C190.830893,59.1473241 190.498836,59.2268051 190.220673,59.3761595 C189.939034,59.5307544 189.710419,59.7229063 189.537437,59.954362 C189.324469,60.1962987 189.18278,60.5072354 189.114108,60.8880456 C189.035006,61.2889443 188.99502,62.0418304 188.99502,63.1475772 M187.357338,63.1475772 C187.357338,61.8418177 187.393847,60.9675266 187.468603,60.5255772 C187.547705,60.0836278 187.668532,59.7255266 187.831953,59.4530203 C188.093599,58.9377038 188.51432,58.4774127 189.092377,58.0730203 C189.660871,57.6642608 190.370186,57.4555139 191.221189,57.4450329 C192.080886,57.4555139 192.798023,57.6651342 193.371734,58.0756405 C193.940228,58.4809063 194.350518,58.9429443 194.602603,59.460881 C194.785147,59.7333873 194.911189,60.0897418 194.979861,60.5308177 C195.044186,60.9718937 195.076348,61.844438 195.076348,63.1475772 C195.076348,64.4306278 195.044186,65.2970582 194.979861,65.7486152 C194.911189,66.2001722 194.785147,66.5626405 194.601734,66.8342734 C194.349649,67.3522101 193.939359,67.8090076 193.370864,68.2037924 C192.797154,68.6142987 192.080886,68.8300329 191.22032,68.8501215 C190.370186,68.8300329 189.660871,68.6142987 189.092377,68.2037924 C188.51432,67.8090076 188.093599,67.3522101 187.831953,66.8342734 C187.75285,66.6648304 187.680702,66.5032481 187.617246,66.3495266 C187.557267,66.1905646 187.507719,65.9905519 187.468603,65.7486152 C187.393847,65.2970582 187.357338,64.4306278 187.357338,63.1475772" id="Fill-21" fill="#231F1F" mask="url(#mask-2)"></path>
                <path d="M203.151668,62.5864937 L206.996396,62.5864937 L206.996396,64.8687342 C206.976403,65.9910759 206.606099,66.9317468 205.883746,67.6898734 C205.157046,68.4427595 204.242587,68.8296835 203.140367,68.8506456 C202.290233,68.8296835 201.580919,68.6148228 201.012424,68.2043165 C200.433498,67.8086582 200.013647,67.3527342 199.752,66.8339241 C199.672898,66.664481 199.600749,66.5028987 199.536424,66.3491772 C199.477314,66.1902152 199.427767,65.9902025 199.38865,65.7491392 C199.313894,65.2975823 199.277385,64.4302785 199.277385,63.1472278 C199.277385,61.8440886 199.313894,60.9724177 199.38865,60.5304684 C199.467753,60.0893924 199.58858,59.733038 199.752,59.4614051 C200.013647,58.9425949 200.433498,58.4814304 201.012424,58.0761646 C201.580919,57.6656582 202.290233,57.4551646 203.140367,57.4446835 C204.183477,57.4551646 205.033611,57.7757089 205.69164,58.4063165 C206.348799,59.043038 206.764304,59.8299873 206.937286,60.7689114 L205.19964,60.7689114 C205.065774,60.3156076 204.823251,59.9286835 204.472071,59.6090127 C204.105244,59.3050633 203.660184,59.1469747 203.135152,59.1373671 C202.749201,59.1469747 202.417145,59.2273291 202.139852,59.3758101 C201.858212,59.5304051 201.630466,59.7234304 201.456615,59.9548861 C201.243647,60.1959494 201.102827,60.5077595 201.033286,60.8876962 C200.954184,61.2885949 200.915067,62.0423544 200.915067,63.1472278 C200.915067,64.2529747 200.954184,65.0014937 201.033286,65.3919114 C201.102827,65.7823291 201.244516,66.0985063 201.457484,66.340443 C201.630466,66.5718987 201.858212,66.7596835 202.140721,66.9037975 C202.418014,67.0732405 202.750071,67.157962 203.13689,67.157962 C203.775795,67.157962 204.303435,66.9317468 204.719809,66.478443 C205.136184,66.0461013 205.349152,65.4775063 205.358714,64.7726582 L205.358714,64.1857215 L203.151668,64.1857215 L203.151668,62.5864937 Z" id="Fill-22" fill="#231F1F" mask="url(#mask-2)"></path>
                <path d="M213.202202,62.4556557 L215.686541,62.4556557 C216.301107,62.4451747 216.762683,62.2600101 217.069531,61.900162 C217.372033,61.565643 217.523283,61.1542633 217.523283,60.6651494 C217.513722,60.0790861 217.332916,59.6546051 216.980866,59.3917063 C216.702704,59.1602506 216.301107,59.0449595 215.776075,59.0449595 L213.202202,59.0449595 L213.202202,62.4556557 Z M211.56452,57.5374405 L215.790852,57.5374405 C216.692273,57.5374405 217.427665,57.7837443 217.997029,58.2754785 C218.682004,58.8353392 219.040139,59.6327696 219.069693,60.6695165 C219.0497,62.1936304 218.353425,63.2295038 216.980866,63.7788835 L219.484329,68.758238 L217.53893,68.758238 L215.299722,63.9623013 L213.202202,63.9623013 L213.202202,68.758238 L211.56452,68.758238 L211.56452,57.5374405 Z" id="Fill-23" fill="#231F1F" mask="url(#mask-2)"></path>
                <path d="M228.560252,64.7414772 L226.994718,59.8319962 L226.965163,59.8319962 L225.39963,64.7414772 L228.560252,64.7414772 Z M229.027912,66.2481228 L224.925015,66.2481228 L224.094004,68.7583253 L222.358096,68.7583253 L226.290619,57.5366544 L227.662308,57.5366544 L231.594831,68.7583253 L229.865877,68.7583253 L229.027912,66.2481228 Z" id="Fill-24" fill="#231F1F" mask="url(#mask-2)"></path>
                <polygon id="Fill-25" fill="#231F1F" mask="url(#mask-2)" points="235.40418 57.5370038 236.947982 57.5370038 240.049495 64.8510038 243.091028 57.5370038 244.640046 57.5370038 244.640046 68.7578013 243.002364 68.7578013 243.002364 61.7599785 242.964986 61.7599785 240.701438 67.1489658 239.335834 67.1489658 237.071417 61.7599785 237.041862 61.7599785 237.041862 68.7578013 235.40418 68.7578013"></polygon>
                <path d="M32.1362057,27.2805038 C32.1362057,31.2100101 31.8267498,34.3875038 31.2078382,36.8103646 C30.5889265,39.2340987 29.4893152,41.3521367 27.908135,43.1644785 C26.7850537,44.4737316 25.5802622,45.5331873 24.2946297,46.3410987 C23.0089972,47.1490101 21.6712092,47.7158582 20.2812657,48.0433899 C18.8913223,48.3709215 17.3961986,48.5351241 15.796764,48.5351241 C11.1688346,48.5351241 7.31280636,46.7454911 4.22780989,43.1644785 C2.39976042,41.0682759 1.23756254,38.6882127 0.742085512,36.0242886 C0.247477739,33.361238 -0.000260777385,29.9776177 -0.000260777385,25.8725544 L-0.000260777385,24.2672127 L-0.000260777385,22.6627443 C-0.000260777385,18.5585544 0.247477739,15.1688203 0.742085512,12.4944152 C1.23756254,9.82001013 2.39976042,7.43383291 4.22780989,5.3385038 C5.80812085,3.52616203 7.51273569,2.18371899 9.34078516,1.31030127 C11.1688346,0.436883544 13.3211173,0.000174683544 15.796764,0.000174683544 C20.7480572,0.000174683544 24.5614919,1.51817468 27.2370678,4.55242785 C29.9126438,7.58755443 31.5268558,11.3423772 32.0788346,15.8177696 L21.7572657,15.8177696 C21.3382834,13.9407949 20.6715625,12.575643 19.7562339,11.7240608 C18.8417746,10.8733519 17.5161562,10.4471241 15.7819866,10.4471241 C14.0286933,10.4471241 12.6848205,11.1458582 11.7512375,12.5433266 C11.4078806,13.0455418 11.126241,13.6621747 10.907188,14.3932253 C10.688135,15.1251494 10.5212375,16.249238 10.4073647,17.7663646 C10.2926226,19.2843646 10.2352516,21.4513139 10.2352516,24.2672127 C10.2352516,27.0839848 10.2926226,29.2570481 10.4073647,30.7846557 C10.5212375,32.3131367 10.688135,33.4485797 10.907188,34.1909848 C11.126241,34.9333899 11.4078806,35.5552633 11.7512375,36.0574785 C12.6656968,37.4112759 14.0095696,38.0881747 15.7819866,38.0881747 C17.7838876,38.0881747 19.3085661,37.4549468 20.3568912,36.1884911 C21.4052163,34.9875418 21.9293788,33.2957316 21.9293788,31.1121873 L21.9293788,30.4248076 L15.7819866,30.4248076 L15.7819866,20.6320481 L32.1362057,20.6320481 L32.1362057,27.2805038 Z" id="Fill-26" fill="#231F1F" mask="url(#mask-2)"></path>
                <polygon id="Fill-27" fill="#231F1F" mask="url(#mask-2)" points="64.6327187 48.1420861 36.2992558 48.1420861 36.2992558 0.393212658 64.6327187 0.393212658 64.6327187 10.840162 46.5347682 10.840162 46.5347682 18.8310608 62.0023442 18.8310608 62.0023442 29.2780101 46.5347682 29.2780101 46.5347682 37.6951367 64.6327187 37.6951367"></polygon>
                <polygon id="Fill-28" fill="#231F1F" mask="url(#mask-2)" points="99.5856678 10.840162 89.32147 10.840162 89.32147 48.1420861 79.0859576 48.1420861 79.0859576 10.840162 68.8217597 10.840162 68.8217597 0.393212658 99.5856678 0.393212658"></polygon>
                <polygon id="Fill-29" fill="#231F1F" mask="url(#mask-2)" points="145.73266 10.840162 127.63471 10.840162 127.63471 19.2240987 143.102286 19.2240987 143.102286 29.6710481 127.63471 29.6710481 127.63471 48.1420861 117.399197 48.1420861 117.399197 0.393212658 145.73266 0.393212658"></polygon>
                <path d="M164.537491,31.2432873 L161.020473,18.5036165 L157.27571,31.2432873 L164.537491,31.2432873 Z M179.862509,48.1421734 L169.168898,48.1421734 L167.225237,41.0351734 L154.388035,41.0351734 L152.357449,48.1421734 L141.636021,48.1421734 L156.788926,0.3933 L164.708735,0.3933 L179.862509,48.1421734 Z" id="Fill-30" fill="#231F1F" mask="url(#mask-2)"></path>
                <path d="M212.641183,33.5357468 C212.641183,36.6582152 211.921437,39.3544557 210.482816,41.6244684 C209.043324,43.8962278 207.098794,45.6151139 204.650095,46.7828734 C202.200526,47.9515063 199.498872,48.5349494 196.544264,48.5349494 C193.09418,48.5349494 190.092632,48.0659241 187.537883,47.127 C184.984003,46.1880759 182.716109,44.5617722 180.733331,42.2472152 L187.309268,34.7148608 C188.338469,35.8939747 189.691904,36.7507975 191.369572,37.2853291 C193.04637,37.8207342 194.790971,38.088 196.601635,38.088 C200.585445,38.088 202.576914,36.6582152 202.576914,33.7977722 C202.576914,32.5749873 202.30049,31.6360633 201.747642,30.981 C201.194794,30.3259367 200.280335,29.9005823 199.003395,29.7040633 L193.971261,28.8847975 C190.273437,28.2961139 187.481381,26.8872911 185.594222,24.6609494 C183.687939,22.4118987 182.735233,19.213443 182.735233,15.0647089 C182.735233,12.1614684 183.349798,9.56829114 184.578929,7.28692405 C185.808929,5.00555696 187.571784,3.22116456 189.868363,1.932 C192.164943,0.644582278 194.857904,0 197.945508,0 C201.013989,0 203.696519,0.453303797 205.993967,1.35903797 C208.290547,2.26564557 210.296794,3.71202532 212.01184,5.69817722 L205.579331,13.0672025 C204.511883,11.8444177 203.358377,11.0696962 202.119685,10.7421646 C200.880123,10.4146329 199.393692,10.2504304 197.659522,10.2504304 C196.020102,10.2504304 194.771847,10.6984937 193.91389,11.5937468 C193.055932,12.489 192.627388,13.5152658 192.627388,14.6716709 C192.627388,15.5232532 192.903812,16.2656582 193.45666,16.8988861 C194.104257,17.6412911 195.057833,18.1103165 196.315649,18.3068354 L201.347784,19.0929114 C205.00736,19.7043038 207.742045,21.0249114 209.553579,23.0556076 C210.640151,24.256557 211.42596,25.7142911 211.911876,27.4279367 C212.397791,29.1424557 212.641183,31.177519 212.641183,33.5357468" id="Fill-31" fill="#231F1F" mask="url(#mask-2)"></path>
                <polygon id="Fill-32" fill="#231F1F" mask="url(#mask-2)" points="245.908467 10.840162 235.644269 10.840162 235.644269 48.1420861 225.408757 48.1420861 225.408757 10.840162 215.144559 10.840162 215.144559 0.393212658 245.908467 0.393212658"></polygon>
            </g>
        </g>
    </g>
</svg>