<?xml version="1.0" encoding="UTF-8" standalone="no"?>
<svg width="26px" height="27px" viewBox="0 0 26 27" version="1.1" xmlns="http://www.w3.org/2000/svg" xmlns:xlink="http://www.w3.org/1999/xlink">
    <!-- Generator: Sketch 40.3 (33839) - http://www.bohemiancoding.com/sketch -->
    <title></title>
    <desc>Created with Sketch.</desc>
    <defs></defs>
    <g id="Page-1" stroke="none" stroke-width="1" fill="none" fill-rule="evenodd">
        <g id="Desktop-HD-Copy" transform="translate(-773.000000, -765.000000)" fill="#231F20">
            <path d="M795.801339,787.158482 L795.801339,776.310268 L793.541295,776.310268 C793.76451,777.013396 793.876116,777.744416 793.876116,778.503348 C793.876116,779.909605 793.518977,781.207025 792.804688,782.395647 C792.090398,783.584269 791.119426,784.52455 789.891741,785.216518 C788.664056,785.908486 787.324784,786.254464 785.873884,786.254464 C783.675212,786.254464 781.794651,785.498333 780.232143,783.986049 C778.669635,782.473765 777.888393,780.646216 777.888393,778.503348 C777.888393,777.744416 777.999999,777.013396 778.223214,776.310268 L775.862723,776.310268 L775.862723,787.158482 C775.862723,787.448662 775.960378,787.691405 776.155692,787.886719 C776.351005,788.082032 776.593749,788.179688 776.883929,788.179688 L794.780134,788.179688 C795.059153,788.179688 795.299106,788.082032 795.5,787.886719 C795.700894,787.691405 795.801339,787.448662 795.801339,787.158482 L795.801339,787.158482 Z M791.046875,778.235491 C791.046875,776.851556 790.541858,775.671322 789.531808,774.694754 C788.521758,773.718187 787.302463,773.229911 785.873884,773.229911 C784.456466,773.229911 783.242751,773.718187 782.232701,774.694754 C781.222651,775.671322 780.717634,776.851556 780.717634,778.235491 C780.717634,779.619427 781.222651,780.79966 782.232701,781.776228 C783.242751,782.752795 784.456466,783.241071 785.873884,783.241071 C787.302463,783.241071 788.521758,782.752795 789.531808,781.776228 C790.541858,780.79966 791.046875,779.619427 791.046875,778.235491 L791.046875,778.235491 Z M795.801339,772.208705 L795.801339,769.446429 C795.801339,769.133927 795.689733,768.863282 795.466518,768.634487 C795.243302,768.405691 794.969868,768.291295 794.646205,768.291295 L791.733259,768.291295 C791.409597,768.291295 791.136162,768.405691 790.912946,768.634487 C790.689731,768.863282 790.578125,769.133927 790.578125,769.446429 L790.578125,772.208705 C790.578125,772.532368 790.689731,772.805802 790.912946,773.029018 C791.136162,773.252233 791.409597,773.363839 791.733259,773.363839 L794.646205,773.363839 C794.969868,773.363839 795.243302,773.252233 795.466518,773.029018 C795.689733,772.805802 795.801339,772.532368 795.801339,772.208705 L795.801339,772.208705 Z M798.714286,768.726562 L798.714286,787.844866 C798.714286,788.748888 798.390628,789.52455 797.743304,790.171875 C797.095979,790.8192 796.320317,791.142857 795.416295,791.142857 L776.297991,791.142857 C775.393969,791.142857 774.618307,790.8192 773.970982,790.171875 C773.323657,789.52455 773,788.748888 773,787.844866 L773,768.726562 C773,767.82254 773.323657,767.046878 773.970982,766.399554 C774.618307,765.752229 775.393969,765.428571 776.297991,765.428571 L795.416295,765.428571 C796.320317,765.428571 797.095979,765.752229 797.743304,766.399554 C798.390628,767.046878 798.714286,767.82254 798.714286,768.726562 L798.714286,768.726562 Z" id=""></path>
        </g>
    </g>
</svg>