<?xml version="1.0" encoding="UTF-8" standalone="no"?>
<svg width="254px" height="254px" viewBox="0 0 254 254" version="1.1" xmlns="http://www.w3.org/2000/svg" xmlns:xlink="http://www.w3.org/1999/xlink">
    <!-- Generator: Sketch 40.3 (33839) - http://www.bohemiancoding.com/sketch -->
    <title>Page 1</title>
    <desc>Created with Sketch.</desc>
    <defs>
        <polygon id="path-1" points="253.904291 0.0980334223 0 0.0980334223 0 253.708466 253.904291 253.708466 253.904291 0.0980334223"></polygon>
    </defs>
    <g id="Page-1" stroke="none" stroke-width="1" fill="none" fill-rule="evenodd">
        <g id="Desktop-HD" transform="translate(-570.000000, -261.000000)">
            <g id="Page-1" transform="translate(570.000000, 261.000000)">
                <g id="Group-3" transform="translate(0.000000, 0.048599)">
                    <mask id="mask-2" fill="white">
                        <use xlink:href="#path-1"></use>
                    </mask>
                    <g id="Clip-2"></g>
                    <path d="M126.950453,242.143929 C96.1866824,242.143929 67.2252653,230.143054 45.4108588,208.357857 C44.105633,207.048843 42.8289656,205.709191 41.5840297,204.347352 C22.2341096,183.083014 11.5786436,155.582109 11.5786436,126.903197 C11.5786436,63.3584621 63.3328577,11.6635217 126.950453,11.6635217 C181.490701,11.6635217 229.023556,50.3718648 239.977299,103.707562 C241.537435,111.298573 242.326494,119.104054 242.323321,126.903197 C242.323321,190.448989 190.568049,242.143929 126.950453,242.143929 M251.319225,101.382188 C239.265454,42.695277 186.961226,0.0979277715 126.950453,0.0979277715 C56.9505783,0.0979277715 -0.000211543896,56.9834923 -0.000211543896,126.903197 C-0.000211543896,158.464263 11.7267243,188.728993 33.0207328,212.127478 C34.385191,213.62455 35.7856116,215.09204 37.2219946,216.529947 C61.2258805,240.504228 93.0928529,253.708466 126.950453,253.708466 C196.951386,253.708466 253.901118,196.823958 253.904291,126.903197 C253.904291,118.323295 253.032731,109.735997 251.319225,101.382188" id="Fill-1" fill="#231F1F" mask="url(#mask-2)"></path>
                </g>
                <path d="M126.9513,210.64002 L126.9513,210.638964 C90.8587378,210.638964 60.0240996,187.725416 48.2590858,155.697374 C47.3187732,153.135342 46.5000983,150.514145 45.8094075,147.842236 C44.084267,141.162992 43.1672243,134.16257 43.1672243,126.952959 C43.1672243,80.8067987 80.7532859,43.2648406 126.9513,43.2648406 C170.260681,43.2648406 206.003138,76.2606444 210.30171,118.407921 C210.58941,121.218233 210.735375,124.068692 210.735375,126.951902 C210.735375,173.098062 173.148256,210.64002 126.9513,210.64002 M223.180502,107.203653 C214.005844,62.5344914 174.345594,28.8350532 126.9513,28.8350532 C72.7865428,28.8350532 28.7219493,72.8502363 28.7219493,126.951902 L28.7219493,126.952959 C28.7219493,152.313379 38.4043134,175.456188 54.2701056,192.889628 C55.3278251,194.051787 56.4130453,195.188589 57.5247085,196.298979 C75.3113192,214.065219 99.8683923,225.069807 126.9513,225.069807 C181.116056,225.069807 225.179592,181.053568 225.179592,126.951902 L225.18065,126.951902 C225.18065,120.189194 224.492074,113.584962 223.180502,107.203653" id="Fill-4" fill="#231F1F"></path>
                <path d="M126.9513,178.707063 C98.3822965,178.707063 75.1357378,155.489242 75.1357378,126.952959 C75.1357378,98.4166753 98.3822965,75.1988538 126.9513,75.1988538 C155.520303,75.1988538 178.765804,98.4166753 178.765804,126.952959 C178.765804,155.489242 155.520303,178.707063 126.9513,178.707063 M126.9513,60.7701229 C90.4144956,60.7701229 60.6904629,90.4590565 60.6904629,126.952959 C60.6904629,163.446861 90.4144956,193.135794 126.9513,193.135794 C163.488104,193.135794 193.211079,163.446861 193.211079,126.952959 C193.211079,90.4590565 163.488104,60.7701229 126.9513,60.7701229" id="Fill-6" fill="#231F1F"></path>
                <path d="M127.338742,115.295765 C134.544985,115.295765 140.405809,121.149877 140.405809,128.347866 C140.408982,135.536347 134.599986,141.486601 127.360954,141.399967 L117.468104,115.295765 L127.338742,115.295765 Z M154.664925,128.347866 C154.664925,113.298965 142.404898,101.05298 127.338742,101.05298 L96.8224776,101.05298 L151.816486,247.23672 L165.153271,242.192951 L132.562819,155.127177 C145.136988,152.683473 154.664925,141.611269 154.664925,128.347866 L154.664925,128.347866 Z" id="Fill-8" fill="#231F1F"></path>
            </g>
        </g>
    </g>
</svg>